<?xml version="1.0" encoding="utf-8"?>
<!-- Generator: Adobe Illustrator 27.4.0, SVG Export Plug-In . SVG Version: 6.00 Build 0)  -->
<svg version="1.1" id="Ebene_1" xmlns="http://www.w3.org/2000/svg" xmlns:xlink="http://www.w3.org/1999/xlink" x="0px" y="0px"
	 viewBox="0 0 800 800" style="enable-background:new 0 0 800 800;" xml:space="preserve">
<style type="text/css">
	.st0{fill:none;stroke:#000000;stroke-width:50;stroke-linecap:round;stroke-linejoin:round;stroke-miterlimit:133.3333;}
</style>
<path class="st0" d="M238.6,131.8c0,59-47.8,106.8-106.8,106.8S25,190.8,25,131.8S72.8,25,131.8,25c28.3,0,55.5,11.3,75.5,31.3
	C227.3,76.3,238.6,103.5,238.6,131.8z"/>
<path class="st0" d="M772.5,131.8c0,59-47.8,106.8-106.8,106.8S559,190.8,559,131.8S606.8,25,665.7,25S772.5,72.8,772.5,131.8z"/>
<path class="st0" d="M238.6,665.7c0,59-47.8,106.8-106.8,106.8S25,724.7,25,665.7S72.8,559,131.8,559c28.3,0,55.5,11.3,75.5,31.3
	C227.3,610.3,238.6,637.4,238.6,665.7z"/>
<path class="st0" d="M772.5,665.7c0,59-47.8,106.8-106.8,106.8S559,724.7,559,665.7S606.8,559,665.7,559S772.5,606.8,772.5,665.7z"
	/>
<path d="M238.6,91.7c-22.1,0-40,17.9-40,40s17.9,40,40,40V91.7z M559,171.8c22.1,0,40-17.9,40-40s-17.9-40-40-40V171.8z
	 M171.8,238.6c0-22.1-17.9-40-40-40s-40,17.9-40,40H171.8z M91.7,559c0,22.1,17.9,40,40,40s40-17.9,40-40H91.7z M705.8,238.6
	c0-22.1-17.9-40-40-40s-40,17.9-40,40H705.8z M625.7,559c0,22.1,17.9,40,40,40s40-17.9,40-40H625.7z M238.6,625.7
	c-22.1,0-40,17.9-40,40s17.9,40,40,40V625.7z M559,705.8c22.1,0,40-17.9,40-40s-17.9-40-40-40V705.8z M238.6,171.8H559V91.7H238.6
	V171.8z M91.7,238.6V559h80.1V238.6H91.7z M625.7,238.6V559h80.1V238.6H625.7z M238.6,705.8H559v-80.1H238.6V705.8z"/>
</svg>
