<?xml version="1.0" encoding="utf-8"?>
<!-- Generator: Adobe Illustrator 27.4.0, SVG Export Plug-In . SVG Version: 6.00 Build 0)  -->
<svg version="1.1" id="Ebene_1" xmlns="http://www.w3.org/2000/svg" xmlns:xlink="http://www.w3.org/1999/xlink" x="0px" y="0px"
	 viewBox="0 0 800 800" style="enable-background:new 0 0 800 800;" xml:space="preserve">
<style type="text/css">
	.st0{stroke:#000000;stroke-width:50;stroke-linecap:round;stroke-linejoin:round;stroke-miterlimit:133.3333;}
</style>
<path class="st0" d="M216.8,131.8c0,47-38,85-85,85s-85-38-85-85s38-85,85-85c22.5,0,44.2,9,60.1,24.9S216.8,109.3,216.8,131.8z"/>
<path class="st0" d="M750.8,134.3c0,47-38.1,85-85,85s-85-38.1-85-85s38.1-85,85-85C712.7,49.3,750.8,87.3,750.8,134.3z"/>
<path class="st0" d="M216.8,665.8c0,47-38,85-85,85s-85-38-85-85s38-84.9,85-84.9c22.5,0,44.2,9,60.1,24.9S216.8,643.2,216.8,665.8z
	"/>
<path class="st0" d="M750.8,665.7c0,47-38.1,85-85,85s-85-38.1-85-85s38.1-85,85-85C712.7,580.7,750.8,618.8,750.8,665.7z"/>
<path d="M228.8,174.2h340v-85h-340V174.2z M89.2,228.8v340h85v-340H89.2z M623.2,228.8v340h85v-340H623.2z M228.8,708.2h340v-85
	h-340V708.2z"/>
</svg>
